<?xml version="1.0" encoding="iso-8859-1"?>
<!-- Uploaded to: SVG Repo, www.svgrepo.com, Generator: SVG Repo Mixer Tools -->
<svg height="800px" width="800px" version="1.1" id="Layer_1" xmlns="http://www.w3.org/2000/svg" xmlns:xlink="http://www.w3.org/1999/xlink" 
	 viewBox="0 0 512 512" xml:space="preserve">
<g transform="translate(1 1)">
	<path style="fill:#33A9F8;" d="M272.067,7.533c122.88,8.533,221.867,107.52,230.4,230.4h-230.4V7.533z"/>
	<path style="fill:#54C9FD;" d="M272.067,7.533c122.88,8.533,187.733,107.52,196.267,230.4H272.067V7.533z"/>
	<path style="fill:#FFFFFF;" d="M237.933,7.533c-122.88,8.533-221.867,107.52-230.4,230.4h230.4V7.533z"/>
	<path style="fill:#FFDD09;" d="M237.933,7.533c-122.88,8.533-187.733,107.52-196.267,230.4h196.267V7.533z"/>
	<path style="fill:#FFFFFF;" d="M237.933,502.467c-122.88-8.533-221.867-107.52-230.4-230.4h230.4V502.467z"/>
	<path style="fill:#DB4D6C;" d="M237.933,502.467c-122.88-8.533-187.733-107.52-196.267-230.4h196.267V502.467z"/>
	<path style="fill:#15A143;" d="M272.067,502.467c122.88-8.533,221.867-107.52,230.4-230.4h-230.4V502.467z"/>
	<path style="fill:#1CD759;" d="M272.067,502.467c122.88-8.533,187.733-107.52,196.267-230.4H272.067V502.467z"/>
	<path d="M237.933,511L237.933,511C109.933,502.467,7.533,400.067-1,272.92c0-2.56,0.853-4.267,2.56-6.827
		c1.707-1.707,3.413-2.56,5.973-2.56h230.4c5.12,0,8.533,3.413,8.533,8.533v230.4c0,2.56-0.853,4.267-2.56,5.973
		C242.2,510.147,240.493,511,237.933,511z M16.92,280.6C28.867,392.387,117.613,481.133,229.4,493.08V280.6H16.92z"/>
	<path d="M237.933,246.467H7.533c-2.56,0-4.267-0.853-5.973-2.56C-0.147,242.2-1,239.64-1,237.08
		C7.533,109.933,109.933,7.533,237.08-1c2.56,0,4.267,0.853,6.827,2.56c1.707,1.707,2.56,3.413,2.56,5.973v230.4
		C246.467,243.053,243.053,246.467,237.933,246.467z M16.92,229.4H229.4V16.92C117.613,28.867,28.867,117.613,16.92,229.4z"/>
	<path d="M272.067,511c-2.56,0-4.267-0.853-5.973-2.56s-2.56-3.413-2.56-5.973v-230.4c0-5.12,3.413-8.533,8.533-8.533h230.4
		c2.56,0,4.267,0.853,5.973,2.56s2.56,4.267,2.56,6.827C502.467,400.067,400.067,502.467,272.067,511L272.067,511z M280.6,280.6
		v212.48c111.787-11.947,200.533-100.693,212.48-212.48H280.6z"/>
	<path d="M502.467,246.467h-230.4c-5.12,0-8.533-3.413-8.533-8.533V7.533c0-2.56,0.853-4.267,2.56-5.973S270.36-1,272.92-1
		C400.067,7.533,502.467,109.933,511,237.08c0,2.56-0.853,4.267-2.56,6.827C506.733,245.613,505.027,246.467,502.467,246.467z
		 M280.6,229.4h212.48C481.133,117.613,392.387,28.867,280.6,16.92V229.4z"/>
</g>
</svg>