{
  "accessors": [
    {
      "bufferView": 2,
      "componentType": 5126,
      "count": 653,
      "max": [
        2.597588539123535,
        16.166873931884766,
        10.24862289428711
      ],
      "min": [
        -2.5758581161499023,
        0.1958489567041397,
        -11.143157958984375
      ],
      "type": "VEC3"
    },
    {
      "bufferView": 2,
      "byteOffset": 7836,
      "componentType": 5126,
      "count": 653,
      "max": [
        1.0,
        1.0,
        1.0
      ],
      "min": [
        -1.0,
        -1.0,
        -1.0
      ],
      "type": "VEC3"
    },
    {
      "bufferView": 1,
      "componentType": 5126,
      "count": 653,
      "max": [
        0.9817928075790405,
        1.0
      ],
      "min": [
        0.3437499701976776,
        -7.450580596923828e-08
      ],
      "type": "VEC2"
    },
    {
      "bufferView": 0,
      "componentType": 5125,
      "count": 1800,
      "type": "SCALAR"
    },
    {
      "bufferView": 2,
      "byteOffset": 15672,
      "componentType": 5126,
      "count": 1642,
      "max": [
        5.350329399108887,
        16.652996063232422,
        12.016661643981934
      ],
      "min": [
        -5.363491058349609,
        0.36202913522720337,
        -18.025659561157227
      ],
      "type": "VEC3"
    },
    {
      "bufferView": 2,
      "byteOffset": 35376,
      "componentType": 5126,
      "count": 1642,
      "max": [
        1.0,
        1.0,
        1.0
      ],
      "min": [
        -1.0,
        -1.0,
        -1.0
      ],
      "type": "VEC3"
    },
    {
      "bufferView": 1,
      "byteOffset": 5224,
      "componentType": 5126,
      "count": 1642,
      "max": [
        0.9999998807907104,
        1.0
      ],
      "min": [
        0.0,
        0.0
      ],
      "type": "VEC2"
    },
    {
      "bufferView": 0,
      "byteOffset": 7200,
      "componentType": 5125,
      "count": 6774,
      "type": "SCALAR"
    },
    {
      "bufferView": 2,
      "byteOffset": 55080,
      "componentType": 5126,
      "count": 3933,
      "max": [
        4.27352237701416,
        11.334868431091309,
        11.743744850158691
      ],
      "min": [
        -5.2660722732543945,
        0.36202913522720337,
        -18.086727142333984
      ],
      "type": "VEC3"
    },
    {
      "bufferView": 2,
      "byteOffset": 102276,
      "componentType": 5126,
      "count": 3933,
      "max": [
        1.0,
        1.0,
        1.0
      ],
      "min": [
        -1.0,
        -1.0,
        -1.0
      ],
      "type": "VEC3"
    },
    {
      "bufferView": 1,
      "byteOffset": 18360,
      "componentType": 5126,
      "count": 3933,
      "max": [
        1.0000001192092896,
        1.0
      ],
      "min": [
        0.0,
        7.450580596923828e-08
      ],
      "type": "VEC2"
    },
    {
      "bufferView": 0,
      "byteOffset": 34296,
      "componentType": 5125,
      "count": 6666,
      "type": "SCALAR"
    },
    {
      "bufferView": 2,
      "byteOffset": 149472,
      "componentType": 5126,
      "count": 168,
      "max": [
        0.6627086997032166,
        1.8585578203201294,
        6.185180187225342
      ],
      "min": [
        -0.6627086997032166,
        0.533140242099762,
        1.420332908630371
      ],
      "type": "VEC3"
    },
    {
      "bufferView": 2,
      "byteOffset": 151488,
      "componentType": 5126,
      "count": 168,
      "max": [
        1.0,
        1.0,
        1.0
      ],
      "min": [
        -1.0,
        -1.0,
        -1.0
      ],
      "type": "VEC3"
    },
    {
      "bufferView": 1,
      "byteOffset": 49824,
      "componentType": 5126,
      "count": 168,
      "max": [
        0.65625,
        1.0
      ],
      "min": [
        0.3437499701976776,
        -7.450580596923828e-08
      ],
      "type": "VEC2"
    },
    {
      "bufferView": 0,
      "byteOffset": 60960,
      "componentType": 5125,
      "count": 480,
      "type": "SCALAR"
    },
    {
      "bufferView": 2,
      "byteOffset": 153504,
      "componentType": 5126,
      "count": 486,
      "max": [
        4.063316345214844,
        16.92799949645996,
        11.712499618530273
      ],
      "min": [
        -4.063316345214844,
        -0.409978985786438,
        -2.2170565128326416
      ],
      "type": "VEC3"
    },
    {
      "bufferView": 2,
      "byteOffset": 159336,
      "componentType": 5126,
      "count": 486,
      "max": [
        1.0,
        1.0,
        1.0
      ],
      "min": [
        -1.0,
        -1.0,
        -1.0
      ],
      "type": "VEC3"
    },
    {
      "bufferView": 1,
      "byteOffset": 51168,
      "componentType": 5126,
      "count": 486,
      "max": [
        0.875,
        1.0
      ],
      "min": [
        0.125,
        0.0
      ],
      "type": "VEC2"
    },
    {
      "bufferView": 0,
      "byteOffset": 62880,
      "componentType": 5125,
      "count": 1104,
      "type": "SCALAR"
    },
    {
      "bufferView": 2,
      "byteOffset": 165168,
      "componentType": 5126,
      "count": 332,
      "max": [
        4.513956069946289,
        4.776763916015625,
        12.259520530700684
      ],
      "min": [
        -4.513956069946289,
        -0.41412046551704407,
        -18.214448928833008
      ],
      "type": "VEC3"
    },
    {
      "bufferView": 2,
      "byteOffset": 169152,
      "componentType": 5126,
      "count": 332,
      "max": [
        1.0,
        1.0,
        1.0
      ],
      "min": [
        -1.0,
        -1.0,
        -1.0
      ],
      "type": "VEC3"
    },
    {
      "bufferView": 1,
      "byteOffset": 55056,
      "componentType": 5126,
      "count": 332,
      "max": [
        0.875,
        1.0
      ],
      "min": [
        0.125,
        0.0
      ],
      "type": "VEC2"
    },
    {
      "bufferView": 0,
      "byteOffset": 67296,
      "componentType": 5125,
      "count": 942,
      "type": "SCALAR"
    },
    {
      "bufferView": 2,
      "byteOffset": 173136,
      "componentType": 5126,
      "count": 12,
      "max": [
        2.5758581161499023,
        7.025872230529785,
        -8.023792266845703
      ],
      "min": [
        -2.5758581161499023,
        3.7148261070251465,
        -12.263343811035156
      ],
      "type": "VEC3"
    },
    {
      "bufferView": 2,
      "byteOffset": 173280,
      "componentType": 5126,
      "count": 12,
      "max": [
        1.0,
        0.0,
        0.0
      ],
      "min": [
        -1.0,
        -0.3204739987850189,
        -0.9472572803497314
      ],
      "type": "VEC3"
    },
    {
      "bufferView": 1,
      "byteOffset": 57712,
      "componentType": 5126,
      "count": 12,
      "max": [
        0.9601909518241882,
        0.9958909153938293
      ],
      "min": [
        0.6812305450439453,
        0.657720148563385
      ],
      "type": "VEC2"
    },
    {
      "bufferView": 0,
      "byteOffset": 71064,
      "componentType": 5125,
      "count": 18,
      "type": "SCALAR"
    },
    {
      "bufferView": 2,
      "byteOffset": 173424,
      "componentType": 5126,
      "count": 102,
      "max": [
        2.978320837020874,
        7.68691349029541,
        -3.925673007965088
      ],
      "min": [
        -2.978320837020874,
        1.1696422100067139,
        -13.178205490112305
      ],
      "type": "VEC3"
    },
    {
      "bufferView": 2,
      "byteOffset": 174648,
      "componentType": 5126,
      "count": 102,
      "max": [
        0.9858793616294861,
        1.0,
        1.0
      ],
      "min": [
        -0.9858793616294861,
        -1.0,
        -0.945766270160675
      ],
      "type": "VEC3"
    },
    {
      "bufferView": 1,
      "byteOffset": 57808,
      "componentType": 5126,
      "count": 102,
      "max": [
        0.7018828392028809,
        1.0
      ],
      "min": [
        0.0,
        0.0
      ],
      "type": "VEC2"
    },
    {
      "bufferView": 0,
      "byteOffset": 71136,
      "componentType": 5125,
      "count": 252,
      "type": "SCALAR"
    },
    {
      "bufferView": 2,
      "byteOffset": 175872,
      "componentType": 5126,
      "count": 576,
      "max": [
        5.252910614013672,
        2.676441192626953,
        6.881316184997559
      ],
      "min": [
        -5.2660722732543945,
        0.36202913522720337,
        4.566904067993164
      ],
      "type": "VEC3"
    },
    {
      "bufferView": 2,
      "byteOffset": 182784,
      "componentType": 5126,
      "count": 576,
      "max": [
        0.9636120796203613,
        0.9351135492324829,
        0.9351141452789307
      ],
      "min": [
        -0.9636120200157166,
        -0.935113787651062,
        -0.9351136088371277
      ],
      "type": "VEC3"
    },
    {
      "bufferView": 1,
      "byteOffset": 58624,
      "componentType": 5126,
      "count": 576,
      "max": [
        0.916666567325592,
        1.0
      ],
      "min": [
        0.0,
        7.450580596923828e-08
      ],
      "type": "VEC2"
    },
    {
      "bufferView": 0,
      "byteOffset": 72144,
      "componentType": 5125,
      "count": 864,
      "type": "SCALAR"
    }
  ],
  "asset": {
    "extras": {
      "author": "Luc Smits (https://sketchfab.com/LucSmits)",
      "license": "CC-BY-4.0 (http://creativecommons.org/licenses/by/4.0/)",
      "source": "https://sketchfab.com/3d-models/fishing-boat-asset-8a22e9c369d64a329c67e9a355064b2c",
      "title": "Fishing Boat (asset)"
    },
    "generator": "Sketchfab-12.68.0",
    "version": "2.0"
  },
  "bufferViews": [
    {
      "buffer": 0,
      "byteLength": 75600,
      "name": "floatBufferViews",
      "target": 34963
    },
    {
      "buffer": 0,
      "byteLength": 63232,
      "byteOffset": 75600,
      "byteStride": 8,
      "name": "floatBufferViews",
      "target": 34962
    },
    {
      "buffer": 0,
      "byteLength": 189696,
      "byteOffset": 138832,
      "byteStride": 12,
      "name": "floatBufferViews",
      "target": 34962
    }
  ],
  "buffers": [
    {
      "byteLength": 328528,
      "uri": "scene.bin"
    }
  ],
  "materials": [
    {
      "doubleSided": true,
      "name": "lambert2",
      "pbrMetallicRoughness": {
        "baseColorFactor": [
          0.161,
          0.0672046,
          0.017549,
          1.0
        ],
        "metallicFactor": 0.0,
        "roughnessFactor": 0.6
      }
    },
    {
      "doubleSided": true,
      "name": "lambert5",
      "pbrMetallicRoughness": {
        "metallicFactor": 0.0,
        "roughnessFactor": 0.6
      }
    },
    {
      "doubleSided": true,
      "name": "lambert9",
      "pbrMetallicRoughness": {
        "baseColorFactor": [
          0.451,
          0.451,
          0.451,
          1.0
        ],
        "metallicFactor": 0.0,
        "roughnessFactor": 0.6
      }
    },
    {
      "doubleSided": true,
      "name": "lambert8",
      "pbrMetallicRoughness": {
        "baseColorFactor": [
          0.231,
          0.231,
          0.231,
          1.0
        ],
        "metallicFactor": 0.0,
        "roughnessFactor": 0.6
      }
    },
    {
      "doubleSided": true,
      "name": "lambert7",
      "pbrMetallicRoughness": {
        "baseColorFactor": [
          0.114,
          0.0662206,
          0.040926,
          1.0
        ],
        "metallicFactor": 0.0,
        "roughnessFactor": 0.6
      }
    },
    {
      "doubleSided": true,
      "name": "lambert4",
      "pbrMetallicRoughness": {
        "baseColorFactor": [
          0.331632,
          0.449954,
          0.588,
          1.0
        ],
        "metallicFactor": 0.0,
        "roughnessFactor": 0.6
      }
    },
    {
      "doubleSided": true,
      "name": "lambert10",
      "pbrMetallicRoughness": {
        "baseColorFactor": [
          0.417984,
          0.672,
          0.672,
          1.0
        ],
        "metallicFactor": 0.0,
        "roughnessFactor": 0.6
      }
    },
    {
      "doubleSided": true,
      "name": "lambert3",
      "pbrMetallicRoughness": {
        "baseColorFactor": [
          0.615,
          0.165579,
          0.0,
          1.0
        ],
        "metallicFactor": 0.0,
        "roughnessFactor": 0.6
      }
    },
    {
      "doubleSided": true,
      "name": "lambert6",
      "pbrMetallicRoughness": {
        "baseColorFactor": [
          1.0,
          0.15385,
          0.0,
          1.0
        ],
        "metallicFactor": 0.0,
        "roughnessFactor": 0.6
      }
    }
  ],
  "meshes": [
    {
      "name": "boat_lambert2_0",
      "primitives": [
        {
          "attributes": {
            "NORMAL": 1,
            "POSITION": 0,
            "TEXCOORD_0": 2
          },
          "indices": 3,
          "material": 0,
          "mode": 4
        }
      ]
    },
    {
      "name": "boat_lambert5_0",
      "primitives": [
        {
          "attributes": {
            "NORMAL": 5,
            "POSITION": 4,
            "TEXCOORD_0": 6
          },
          "indices": 7,
          "material": 1,
          "mode": 4
        }
      ]
    },
    {
      "name": "boat_lambert9_0",
      "primitives": [
        {
          "attributes": {
            "NORMAL": 9,
            "POSITION": 8,
            "TEXCOORD_0": 10
          },
          "indices": 11,
          "material": 2,
          "mode": 4
        }
      ]
    },
    {
      "name": "boat_lambert8_0",
      "primitives": [
        {
          "attributes": {
            "NORMAL": 13,
            "POSITION": 12,
            "TEXCOORD_0": 14
          },
          "indices": 15,
          "material": 3,
          "mode": 4
        }
      ]
    },
    {
      "name": "boat_lambert7_0",
      "primitives": [
        {
          "attributes": {
            "NORMAL": 17,
            "POSITION": 16,
            "TEXCOORD_0": 18
          },
          "indices": 19,
          "material": 4,
          "mode": 4
        }
      ]
    },
    {
      "name": "boat_lambert4_0",
      "primitives": [
        {
          "attributes": {
            "NORMAL": 21,
            "POSITION": 20,
            "TEXCOORD_0": 22
          },
          "indices": 23,
          "material": 5,
          "mode": 4
        }
      ]
    },
    {
      "name": "boat_lambert10_0",
      "primitives": [
        {
          "attributes": {
            "NORMAL": 25,
            "POSITION": 24,
            "TEXCOORD_0": 26
          },
          "indices": 27,
          "material": 6,
          "mode": 4
        }
      ]
    },
    {
      "name": "boat_lambert3_0",
      "primitives": [
        {
          "attributes": {
            "NORMAL": 29,
            "POSITION": 28,
            "TEXCOORD_0": 30
          },
          "indices": 31,
          "material": 7,
          "mode": 4
        }
      ]
    },
    {
      "name": "boat_lambert6_0",
      "primitives": [
        {
          "attributes": {
            "NORMAL": 33,
            "POSITION": 32,
            "TEXCOORD_0": 34
          },
          "indices": 35,
          "material": 8,
          "mode": 4
        }
      ]
    }
  ],
  "nodes": [
    {
      "children": [
        1
      ],
      "matrix": [
        1.0,
        0.0,
        0.0,
        0.0,
        0.0,
        2.220446049250313e-16,
        -1.0,
        0.0,
        0.0,
        1.0,
        2.220446049250313e-16,
        0.0,
        0.0,
        0.0,
        0.0,
        1.0
      ],
      "name": "Sketchfab_model"
    },
    {
      "children": [
        2
      ],
      "matrix": [
        1.0,
        0.0,
        0.0,
        0.0,
        0.0,
        0.0,
        1.0,
        0.0,
        0.0,
        -1.0,
        0.0,
        0.0,
        0.0,
        0.0,
        0.0,
        1.0
      ],
      "name": "224e523c27014f198e3dfaf16bb2d7ad.fbx"
    },
    {
      "children": [
        3,
        5,
        7
      ],
      "name": "RootNode"
    },
    {
      "children": [
        4
      ],
      "matrix": [
        1.0,
        0.0,
        -2.220446049250313e-16,
        0.0,
        0.0,
        1.0,
        0.0,
        0.0,
        2.220446049250313e-16,
        0.0,
        1.0,
        0.0,
        -1000.0999755859375,
        2.089946985244751,
        -14.656085014343262,
        1.0
      ],
      "name": "left"
    },
    {
      "name": "Object_4"
    },
    {
      "children": [
        6
      ],
      "matrix": [
        2.220446049250313e-16,
        0.0,
        1.0,
        0.0,
        0.0,
        1.0,
        0.0,
        0.0,
        -1.0,
        0.0,
        2.220446049250313e-16,
        0.0,
        -8.000771522521973,
        1.1766520738601685,
        -1000.0999755859375,
        1.0
      ],
      "name": "back"
    },
    {
      "name": "Object_6"
    },
    {
      "children": [
        8,
        9,
        10,
        11,
        12,
        13,
        14,
        15,
        16
      ],
      "name": "boat"
    },
    {
      "mesh": 0,
      "name": "boat_lambert2_0"
    },
    {
      "mesh": 1,
      "name": "boat_lambert5_0"
    },
    {
      "mesh": 2,
      "name": "boat_lambert9_0"
    },
    {
      "mesh": 3,
      "name": "boat_lambert8_0"
    },
    {
      "mesh": 4,
      "name": "boat_lambert7_0"
    },
    {
      "mesh": 5,
      "name": "boat_lambert4_0"
    },
    {
      "mesh": 6,
      "name": "boat_lambert10_0"
    },
    {
      "mesh": 7,
      "name": "boat_lambert3_0"
    },
    {
      "mesh": 8,
      "name": "boat_lambert6_0"
    }
  ],
  "scene": 0,
  "scenes": [
    {
      "name": "Sketchfab_Scene",
      "nodes": [
        0
      ]
    }
  ]
}
