{
  "accessors": [
    {
      "bufferView": 2,
      "componentType": 5126,
      "count": 3841,
      "max": [
        54.47599792480469,
        -3.8604729175567627,
        82.36540222167969
      ],
      "min": [
        -54.47600173950195,
        -47.55093765258789,
        -75.21302795410156
      ],
      "type": "VEC3"
    },
    {
      "bufferView": 2,
      "byteOffset": 46092,
      "componentType": 5126,
      "count": 3841,
      "max": [
        1.0,
        1.0,
        1.0
      ],
      "min": [
        -1.0,
        -1.0,
        -1.0
      ],
      "type": "VEC3"
    },
    {
      "bufferView": 3,
      "componentType": 5126,
      "count": 3841,
      "max": [
        1.0,
        1.0,
        1.0,
        1.0
      ],
      "min": [
        -1.0,
        -1.0,
        -1.0,
        -1.0
      ],
      "type": "VEC4"
    },
    {
      "bufferView": 1,
      "componentType": 5126,
      "count": 3841,
      "max": [
        0.9713469743728638,
        0.9602800011634827
      ],
      "min": [
        0.011106999590992928,
        0.06455399841070175
      ],
      "type": "VEC2"
    },
    {
      "bufferView": 0,
      "componentType": 5125,
      "count": 14442,
      "type": "SCALAR"
    },
    {
      "bufferView": 2,
      "byteOffset": 92184,
      "componentType": 5126,
      "count": 2369,
      "max": [
        47.55291748046875,
        -3.3475921154022217,
        81.14387512207031
      ],
      "min": [
        -47.55291748046875,
        -40.31829833984375,
        -85.8489761352539
      ],
      "type": "VEC3"
    },
    {
      "bufferView": 2,
      "byteOffset": 120612,
      "componentType": 5126,
      "count": 2369,
      "max": [
        1.0,
        1.0,
        1.0
      ],
      "min": [
        -1.0,
        -1.0,
        -1.0
      ],
      "type": "VEC3"
    },
    {
      "bufferView": 3,
      "byteOffset": 61456,
      "componentType": 5126,
      "count": 2369,
      "max": [
        1.0,
        1.0,
        1.0,
        1.0
      ],
      "min": [
        -1.0,
        -0.9999784827232361,
        -1.0,
        -1.0
      ],
      "type": "VEC4"
    },
    {
      "bufferView": 1,
      "byteOffset": 30728,
      "componentType": 5126,
      "count": 2369,
      "max": [
        0.9945780038833618,
        0.929078996181488
      ],
      "min": [
        0.011176999658346176,
        0.06455399841070175
      ],
      "type": "VEC2"
    },
    {
      "bufferView": 0,
      "byteOffset": 57768,
      "componentType": 5125,
      "count": 14058,
      "type": "SCALAR"
    },
    {
      "bufferView": 2,
      "byteOffset": 149040,
      "componentType": 5126,
      "count": 2523,
      "max": [
        62.400848388671875,
        -4.663019180297852,
        82.53734588623047
      ],
      "min": [
        -62.400848388671875,
        -39.46162414550781,
        -67.2204818725586
      ],
      "type": "VEC3"
    },
    {
      "bufferView": 2,
      "byteOffset": 179316,
      "componentType": 5126,
      "count": 2523,
      "max": [
        1.0,
        1.0,
        1.0
      ],
      "min": [
        -1.0,
        -1.0,
        -1.0
      ],
      "type": "VEC3"
    },
    {
      "bufferView": 3,
      "byteOffset": 99360,
      "componentType": 5126,
      "count": 2523,
      "max": [
        1.0,
        1.0,
        1.0,
        1.0
      ],
      "min": [
        -1.0,
        -1.0,
        -1.0,
        -1.0
      ],
      "type": "VEC4"
    },
    {
      "bufferView": 1,
      "byteOffset": 49680,
      "componentType": 5126,
      "count": 2523,
      "max": [
        0.9723330140113831,
        0.9837809801101685
      ],
      "min": [
        0.021734999492764473,
        0.07045900076627731
      ],
      "type": "VEC2"
    },
    {
      "bufferView": 0,
      "byteOffset": 114000,
      "componentType": 5125,
      "count": 13968,
      "type": "SCALAR"
    },
    {
      "bufferView": 2,
      "byteOffset": 209592,
      "componentType": 5126,
      "count": 561,
      "max": [
        15.0,
        -28.024330139160156,
        1.909208059310913
      ],
      "min": [
        -14.999990463256836,
        -49.26239776611328,
        -20.994409561157227
      ],
      "type": "VEC3"
    },
    {
      "bufferView": 2,
      "byteOffset": 216324,
      "componentType": 5126,
      "count": 561,
      "max": [
        1.0,
        0.999492347240448,
        0.9994826316833496
      ],
      "min": [
        -1.0,
        -0.999492347240448,
        -0.9994826316833496
      ],
      "type": "VEC3"
    },
    {
      "bufferView": 3,
      "byteOffset": 139728,
      "componentType": 5126,
      "count": 561,
      "max": [
        1.0,
        0.7038034200668335,
        0.7617320418357849,
        1.0
      ],
      "min": [
        -1.0,
        -0.6759853363037109,
        -0.7375882267951965,
        1.0
      ],
      "type": "VEC4"
    },
    {
      "bufferView": 1,
      "byteOffset": 69864,
      "componentType": 5126,
      "count": 561,
      "max": [
        0.421083003282547,
        0.528689980506897
      ],
      "min": [
        0.021170999854803085,
        0.48516198992729187
      ],
      "type": "VEC2"
    },
    {
      "bufferView": 0,
      "byteOffset": 169872,
      "componentType": 5125,
      "count": 3072,
      "type": "SCALAR"
    },
    {
      "bufferView": 2,
      "byteOffset": 223056,
      "componentType": 5126,
      "count": 3708,
      "max": [
        59.96903610229492,
        -0.3083670139312744,
        69.19483947753906
      ],
      "min": [
        -59.96903610229492,
        -23.901683807373047,
        -54.12085723876953
      ],
      "type": "VEC3"
    },
    {
      "bufferView": 2,
      "byteOffset": 267552,
      "componentType": 5126,
      "count": 3708,
      "max": [
        0.9989867806434631,
        0.9986993670463562,
        0.9986993670463562
      ],
      "min": [
        -0.9989867806434631,
        -0.9986993670463562,
        -0.9986993670463562
      ],
      "type": "VEC3"
    },
    {
      "bufferView": 3,
      "byteOffset": 148704,
      "componentType": 5126,
      "count": 3708,
      "max": [
        0.9645041823387146,
        1.0,
        1.0,
        1.0
      ],
      "min": [
        -0.9645041823387146,
        -1.0,
        -1.0,
        -1.0
      ],
      "type": "VEC4"
    },
    {
      "bufferView": 1,
      "byteOffset": 74352,
      "componentType": 5126,
      "count": 3708,
      "max": [
        1.0,
        0.42506200075149536
      ],
      "min": [
        0.0,
        0.0
      ],
      "type": "VEC2"
    },
    {
      "bufferView": 0,
      "byteOffset": 182160,
      "componentType": 5125,
      "count": 14880,
      "type": "SCALAR"
    },
    {
      "bufferView": 2,
      "byteOffset": 312048,
      "componentType": 5126,
      "count": 1230,
      "max": [
        60.16315841674805,
        1.2143219709396362,
        75.35646057128906
      ],
      "min": [
        -60.16315841674805,
        -29.49859046936035,
        44.6435432434082
      ],
      "type": "VEC3"
    },
    {
      "bufferView": 2,
      "byteOffset": 326808,
      "componentType": 5126,
      "count": 1230,
      "max": [
        0.9993294477462769,
        1.0,
        1.0
      ],
      "min": [
        -0.9993294477462769,
        -1.0,
        -1.0
      ],
      "type": "VEC3"
    },
    {
      "bufferView": 3,
      "byteOffset": 208032,
      "componentType": 5126,
      "count": 1230,
      "max": [
        0.038271039724349976,
        1.0,
        1.0,
        1.0
      ],
      "min": [
        -0.03827042877674103,
        -1.0,
        -1.0,
        -1.0
      ],
      "type": "VEC4"
    },
    {
      "bufferView": 1,
      "byteOffset": 104016,
      "componentType": 5126,
      "count": 1230,
      "max": [
        1.0000159740447998,
        0.23062199354171753
      ],
      "min": [
        0.0,
        0.0
      ],
      "type": "VEC2"
    },
    {
      "bufferView": 0,
      "byteOffset": 241680,
      "componentType": 5125,
      "count": 5760,
      "type": "SCALAR"
    }
  ],
  "asset": {
    "extras": {
      "author": "GRIP420 (https://sketchfab.com/GRIP420)",
      "license": "CC-BY-NC-ND-4.0 (http://creativecommons.org/licenses/by-nc-nd/4.0/)",
      "source": "https://sketchfab.com/3d-models/go-kart-db54b705c0e546229fb43c55d7e7ad3f",
      "title": "Go Kart"
    },
    "generator": "Sketchfab-12.68.0",
    "version": "2.0"
  },
  "bufferViews": [
    {
      "buffer": 0,
      "byteLength": 264720,
      "name": "floatBufferViews",
      "target": 34963
    },
    {
      "buffer": 0,
      "byteLength": 113856,
      "byteOffset": 264720,
      "byteStride": 8,
      "name": "floatBufferViews",
      "target": 34962
    },
    {
      "buffer": 0,
      "byteLength": 341568,
      "byteOffset": 378576,
      "byteStride": 12,
      "name": "floatBufferViews",
      "target": 34962
    },
    {
      "buffer": 0,
      "byteLength": 227712,
      "byteOffset": 720144,
      "byteStride": 16,
      "name": "floatBufferViews",
      "target": 34962
    }
  ],
  "buffers": [
    {
      "byteLength": 947856,
      "uri": "scene.bin"
    }
  ],
  "images": [
    {
      "uri": "textures/phongE1SG_baseColor.jpeg"
    },
    {
      "uri": "textures/phongE1SG_metallicRoughness.png"
    },
    {
      "uri": "textures/phongE1SG_normal.png"
    },
    {
      "uri": "textures/phongE2SG_baseColor.jpeg"
    },
    {
      "uri": "textures/phongE2SG_metallicRoughness.png"
    },
    {
      "uri": "textures/phongE2SG_normal.png"
    }
  ],
  "materials": [
    {
      "doubleSided": true,
      "name": "phongE1SG",
      "normalTexture": {
        "index": 2
      },
      "pbrMetallicRoughness": {
        "baseColorTexture": {
          "index": 0
        },
        "metallicRoughnessTexture": {
          "index": 1
        }
      }
    },
    {
      "doubleSided": true,
      "name": "phongE2SG",
      "normalTexture": {
        "index": 5
      },
      "pbrMetallicRoughness": {
        "baseColorTexture": {
          "index": 3
        },
        "metallicRoughnessTexture": {
          "index": 4
        }
      }
    }
  ],
  "meshes": [
    {
      "name": "Object_0",
      "primitives": [
        {
          "attributes": {
            "NORMAL": 1,
            "POSITION": 0,
            "TANGENT": 2,
            "TEXCOORD_0": 3
          },
          "indices": 4,
          "material": 0,
          "mode": 4
        }
      ]
    },
    {
      "name": "Object_1",
      "primitives": [
        {
          "attributes": {
            "NORMAL": 6,
            "POSITION": 5,
            "TANGENT": 7,
            "TEXCOORD_0": 8
          },
          "indices": 9,
          "material": 0,
          "mode": 4
        }
      ]
    },
    {
      "name": "Object_2",
      "primitives": [
        {
          "attributes": {
            "NORMAL": 11,
            "POSITION": 10,
            "TANGENT": 12,
            "TEXCOORD_0": 13
          },
          "indices": 14,
          "material": 0,
          "mode": 4
        }
      ]
    },
    {
      "name": "Object_3",
      "primitives": [
        {
          "attributes": {
            "NORMAL": 16,
            "POSITION": 15,
            "TANGENT": 17,
            "TEXCOORD_0": 18
          },
          "indices": 19,
          "material": 0,
          "mode": 4
        }
      ]
    },
    {
      "name": "Object_4",
      "primitives": [
        {
          "attributes": {
            "NORMAL": 21,
            "POSITION": 20,
            "TANGENT": 22,
            "TEXCOORD_0": 23
          },
          "indices": 24,
          "material": 1,
          "mode": 4
        }
      ]
    },
    {
      "name": "Object_5",
      "primitives": [
        {
          "attributes": {
            "NORMAL": 26,
            "POSITION": 25,
            "TANGENT": 27,
            "TEXCOORD_0": 28
          },
          "indices": 29,
          "material": 1,
          "mode": 4
        }
      ]
    }
  ],
  "nodes": [
    {
      "children": [
        1
      ],
      "matrix": [
        1.0,
        0.0,
        0.0,
        0.0,
        0.0,
        -1.0,
        0.0,
        0.0,
        0.0,
        0.0,
        -1.0,
        0.0,
        0.0,
        0.0,
        0.0,
        1.0
      ],
      "name": "Sketchfab_model"
    },
    {
      "children": [
        2,
        3,
        4,
        5,
        6,
        7
      ],
      "name": "b38770b6f84d47c48e22753644d09784.obj.cleaner"
    },
    {
      "mesh": 0,
      "name": "Object_2"
    },
    {
      "mesh": 1,
      "name": "Object_3"
    },
    {
      "mesh": 2,
      "name": "Object_4"
    },
    {
      "mesh": 3,
      "name": "Object_5"
    },
    {
      "mesh": 4,
      "name": "Object_6"
    },
    {
      "mesh": 5,
      "name": "Object_7"
    }
  ],
  "samplers": [
    {
      "magFilter": 9729,
      "minFilter": 9987,
      "wrapS": 10497,
      "wrapT": 10497
    }
  ],
  "scene": 0,
  "scenes": [
    {
      "name": "Sketchfab_Scene",
      "nodes": [
        0
      ]
    }
  ],
  "textures": [
    {
      "sampler": 0,
      "source": 0
    },
    {
      "sampler": 0,
      "source": 1
    },
    {
      "sampler": 0,
      "source": 2
    },
    {
      "sampler": 0,
      "source": 3
    },
    {
      "sampler": 0,
      "source": 4
    },
    {
      "sampler": 0,
      "source": 5
    }
  ]
}
