{
  "accessors": [
    {
      "bufferView": 3,
      "componentType": 5126,
      "count": 9060,
      "max": [
        11.000393867492676,
        4.200001239776611,
        17.400005340576172
      ],
      "min": [
        -11.000391960144043,
        -3.3999998569488525,
        -0.6000004410743713
      ],
      "type": "VEC3"
    },
    {
      "bufferView": 3,
      "byteOffset": 108720,
      "componentType": 5126,
      "count": 9060,
      "max": [
        1.0,
        1.0,
        1.0
      ],
      "min": [
        -1.0,
        -1.0,
        -1.0
      ],
      "type": "VEC3"
    },
    {
      "bufferView": 2,
      "componentType": 5126,
      "count": 9060,
      "max": [
        0.9949480295181274,
        0.9904709458351135
      ],
      "min": [
        0.005051914136856794,
        0.005051914136856794
      ],
      "type": "VEC2"
    },
    {
      "bufferView": 1,
      "componentType": 5125,
      "count": 21702,
      "type": "SCALAR"
    },
    {
      "bufferView": 5,
      "componentType": 5126,
      "count": 4,
      "max": [
        100.0,
        0.0,
        0.0,
        0.0,
        2.220446313948109e-16,
        100.0,
        1.0,
        0.0,
        0.0,
        0.0,
        100.0,
        0.0,
        2.537653005854352e-16,
        3.200000047683716,
        4.995586522227313e-08,
        1.0
      ],
      "min": [
        1.0,
        -7.930165312422605e-17,
        -2.220446313948109e-16,
        0.0,
        0.0,
        -1.5611208326049564e-08,
        0.0,
        0.0,
        -7.930165312422605e-17,
        -1.0,
        -1.5611208326049564e-08,
        0.0,
        0.0,
        0.0,
        0.0,
        1.0
      ],
      "type": "MAT4"
    },
    {
      "bufferView": 0,
      "componentType": 5123,
      "count": 9060,
      "type": "VEC4"
    },
    {
      "bufferView": 4,
      "componentType": 5126,
      "count": 9060,
      "max": [
        1.0,
        0.0,
        0.0,
        0.0
      ],
      "min": [
        1.0,
        0.0,
        0.0,
        0.0
      ],
      "type": "VEC4"
    },
    {
      "bufferView": 6,
      "componentType": 5126,
      "count": 50,
      "max": [
        0.8166666626930237
      ],
      "min": [
        0.0
      ],
      "type": "SCALAR"
    },
    {
      "bufferView": 8,
      "componentType": 5126,
      "count": 50,
      "max": [
        7.805604163024782e-09,
        0.9994862079620361,
        6.674904184933439e-09,
        1.0
      ],
      "min": [
        -3.610386212216099e-09,
        -0.8551427721977234,
        -7.801594037459836e-09,
        -0.4625381827354431
      ],
      "type": "VEC4"
    },
    {
      "bufferView": 6,
      "byteOffset": 200,
      "componentType": 5126,
      "count": 1,
      "max": [
        0.0
      ],
      "min": [
        0.0
      ],
      "type": "SCALAR"
    },
    {
      "bufferView": 8,
      "byteOffset": 800,
      "componentType": 5126,
      "count": 1,
      "max": [
        7.805604163024782e-09,
        1.1102231569740545e-16,
        -3.9650823253390577e-17,
        1.0
      ],
      "min": [
        7.805604163024782e-09,
        1.1102231569740545e-16,
        -3.9650823253390577e-17,
        1.0
      ],
      "type": "VEC4"
    },
    {
      "bufferView": 6,
      "byteOffset": 204,
      "componentType": 5126,
      "count": 50,
      "max": [
        0.8166666626930237
      ],
      "min": [
        0.0
      ],
      "type": "SCALAR"
    },
    {
      "bufferView": 8,
      "byteOffset": 816,
      "componentType": 5126,
      "count": 50,
      "max": [
        7.805604163024782e-09,
        0.9994862079620361,
        6.674904184933439e-09,
        1.0
      ],
      "min": [
        -3.610386212216099e-09,
        -0.8551427721977234,
        -7.801594037459836e-09,
        -0.4625381827354431
      ],
      "type": "VEC4"
    },
    {
      "bufferView": 6,
      "byteOffset": 404,
      "componentType": 5126,
      "count": 2,
      "max": [
        0.01666666753590107
      ],
      "min": [
        0.0
      ],
      "type": "SCALAR"
    },
    {
      "bufferView": 7,
      "componentType": 5126,
      "count": 2,
      "max": [
        5.13441826858929e-23,
        2.8000001907348633,
        3.108624680708675e-15
      ],
      "min": [
        -4.323550668467509e-23,
        2.8000001907348633,
        3.1086244689504383e-15
      ],
      "type": "VEC3"
    },
    {
      "bufferView": 6,
      "byteOffset": 412,
      "componentType": 5126,
      "count": 2,
      "max": [
        0.01666666753590107
      ],
      "min": [
        0.0
      ],
      "type": "SCALAR"
    },
    {
      "bufferView": 8,
      "byteOffset": 1616,
      "componentType": 5126,
      "count": 2,
      "max": [
        7.661661527436081e-09,
        -0.19115863740444183,
        -1.4921083257846135e-09,
        0.981559157371521
      ],
      "min": [
        7.550321257099313e-09,
        -0.2536545693874359,
        -1.979927333195519e-09,
        0.9672948718070984
      ],
      "type": "VEC4"
    },
    {
      "bufferView": 6,
      "byteOffset": 420,
      "componentType": 5126,
      "count": 2,
      "max": [
        0.01666666753590107
      ],
      "min": [
        0.0
      ],
      "type": "SCALAR"
    },
    {
      "bufferView": 7,
      "byteOffset": 24,
      "componentType": 5126,
      "count": 2,
      "max": [
        -3.649017796518368e-23,
        -3.200000047683716,
        1.0587911840678754e-22
      ],
      "min": [
        -4.4714863851123293e-23,
        -3.200000047683716,
        0.0
      ],
      "type": "VEC3"
    },
    {
      "bufferView": 6,
      "byteOffset": 428,
      "componentType": 5126,
      "count": 2,
      "max": [
        0.01666666753590107
      ],
      "min": [
        0.0
      ],
      "type": "SCALAR"
    },
    {
      "bufferView": 8,
      "byteOffset": 1648,
      "componentType": 5126,
      "count": 2,
      "max": [
        -7.805604163024782e-09,
        -1.1102231569740545e-16,
        3.965083317955793e-17,
        1.0
      ],
      "min": [
        -7.805604163024782e-09,
        -1.942890425442922e-16,
        3.9650816635945676e-17,
        1.0
      ],
      "type": "VEC4"
    },
    {
      "bufferView": 6,
      "byteOffset": 436,
      "componentType": 5126,
      "count": 2,
      "max": [
        0.01666666753590107
      ],
      "min": [
        0.0
      ],
      "type": "SCALAR"
    },
    {
      "bufferView": 7,
      "byteOffset": 48,
      "componentType": 5126,
      "count": 2,
      "max": [
        100.0,
        100.0,
        100.0
      ],
      "min": [
        99.99999237060547,
        100.0,
        99.99999237060547
      ],
      "type": "VEC3"
    },
    {
      "bufferView": 6,
      "byteOffset": 444,
      "componentType": 5126,
      "count": 2,
      "max": [
        0.01666666753590107
      ],
      "min": [
        0.0
      ],
      "type": "SCALAR"
    },
    {
      "bufferView": 8,
      "byteOffset": 1680,
      "componentType": 5126,
      "count": 2,
      "max": [
        -0.6205446124076843,
        0.33900511264801025,
        -0.2753603756427765,
        0.6512883901596069
      ],
      "min": [
        -0.6512885093688965,
        0.2753604054450989,
        -0.3390050530433655,
        0.6205444931983948
      ],
      "type": "VEC4"
    },
    {
      "bufferView": 6,
      "byteOffset": 452,
      "componentType": 5126,
      "count": 50,
      "max": [
        0.8166666626930237
      ],
      "min": [
        0.0
      ],
      "type": "SCALAR"
    },
    {
      "bufferView": 7,
      "byteOffset": 72,
      "componentType": 5126,
      "count": 50,
      "max": [
        7.127964123847051e-23,
        2.8000001907348633,
        3.108624680708675e-15
      ],
      "min": [
        -8.69598799386465e-23,
        2.8000001907348633,
        3.1086242571922015e-15
      ],
      "type": "VEC3"
    },
    {
      "bufferView": 6,
      "byteOffset": 652,
      "componentType": 5126,
      "count": 50,
      "max": [
        0.8166666626930237
      ],
      "min": [
        0.0
      ],
      "type": "SCALAR"
    },
    {
      "bufferView": 8,
      "byteOffset": 1712,
      "componentType": 5126,
      "count": 50,
      "max": [
        7.805604163024782e-09,
        0.9994862079620361,
        6.674904184933439e-09,
        1.0
      ],
      "min": [
        -3.610386212216099e-09,
        -0.8551427721977234,
        -7.801594037459836e-09,
        -0.4625381827354431
      ],
      "type": "VEC4"
    },
    {
      "bufferView": 6,
      "byteOffset": 852,
      "componentType": 5126,
      "count": 25,
      "max": [
        0.8166666626930237
      ],
      "min": [
        0.0
      ],
      "type": "SCALAR"
    },
    {
      "bufferView": 7,
      "byteOffset": 672,
      "componentType": 5126,
      "count": 25,
      "max": [
        6.116424824477701e-23,
        -3.200000047683716,
        2.117582368135751e-22
      ],
      "min": [
        -8.763402784647389e-23,
        -3.200000047683716,
        -1.0587911840678754e-22
      ],
      "type": "VEC3"
    },
    {
      "bufferView": 6,
      "byteOffset": 952,
      "componentType": 5126,
      "count": 25,
      "max": [
        0.8166666626930237
      ],
      "min": [
        0.0
      ],
      "type": "SCALAR"
    },
    {
      "bufferView": 8,
      "byteOffset": 2512,
      "componentType": 5126,
      "count": 25,
      "max": [
        -7.805604163024782e-09,
        -2.7755582233073814e-17,
        3.965083648828038e-17,
        1.0
      ],
      "min": [
        -7.805604163024782e-09,
        -1.942890425442922e-16,
        3.9650813327223226e-17,
        1.0
      ],
      "type": "VEC4"
    },
    {
      "bufferView": 6,
      "byteOffset": 1052,
      "componentType": 5126,
      "count": 50,
      "max": [
        0.8166666626930237
      ],
      "min": [
        0.0
      ],
      "type": "SCALAR"
    },
    {
      "bufferView": 8,
      "byteOffset": 2912,
      "componentType": 5126,
      "count": 50,
      "max": [
        0.4753885269165039,
        0.7067435383796692,
        0.49192190170288086,
        0.7071067094802856
      ],
      "min": [
        -0.7071068286895752,
        -0.49192196130752563,
        -0.7067434787750244,
        -0.47538846731185913
      ],
      "type": "VEC4"
    }
  ],
  "animations": [
    {
      "channels": [
        {
          "sampler": 0,
          "target": {
            "node": 11,
            "path": "rotation"
          }
        }
      ],
      "name": "ArmatureAction.001",
      "samplers": [
        {
          "input": 7,
          "interpolation": "LINEAR",
          "output": 8
        }
      ]
    },
    {
      "channels": [
        {
          "sampler": 0,
          "target": {
            "node": 11,
            "path": "rotation"
          }
        }
      ],
      "name": "Armature|ArmatureAction",
      "samplers": [
        {
          "input": 9,
          "interpolation": "LINEAR",
          "output": 10
        }
      ]
    },
    {
      "channels": [
        {
          "sampler": 0,
          "target": {
            "node": 11,
            "path": "rotation"
          }
        }
      ],
      "name": "Armature|ArmatureAction.001",
      "samplers": [
        {
          "input": 11,
          "interpolation": "LINEAR",
          "output": 12
        }
      ]
    },
    {
      "channels": [
        {
          "sampler": 0,
          "target": {
            "node": 11,
            "path": "translation"
          }
        },
        {
          "sampler": 1,
          "target": {
            "node": 11,
            "path": "rotation"
          }
        },
        {
          "sampler": 2,
          "target": {
            "node": 10,
            "path": "translation"
          }
        },
        {
          "sampler": 3,
          "target": {
            "node": 10,
            "path": "rotation"
          }
        },
        {
          "sampler": 4,
          "target": {
            "node": 5,
            "path": "scale"
          }
        },
        {
          "sampler": 5,
          "target": {
            "node": 5,
            "path": "rotation"
          }
        }
      ],
      "name": "Armature|Cube.000Action",
      "samplers": [
        {
          "input": 13,
          "interpolation": "LINEAR",
          "output": 14
        },
        {
          "input": 15,
          "interpolation": "LINEAR",
          "output": 16
        },
        {
          "input": 17,
          "interpolation": "LINEAR",
          "output": 18
        },
        {
          "input": 19,
          "interpolation": "LINEAR",
          "output": 20
        },
        {
          "input": 21,
          "interpolation": "LINEAR",
          "output": 22
        },
        {
          "input": 23,
          "interpolation": "LINEAR",
          "output": 24
        }
      ]
    },
    {
      "channels": [
        {
          "sampler": 0,
          "target": {
            "node": 11,
            "path": "translation"
          }
        },
        {
          "sampler": 1,
          "target": {
            "node": 11,
            "path": "rotation"
          }
        },
        {
          "sampler": 2,
          "target": {
            "node": 10,
            "path": "translation"
          }
        },
        {
          "sampler": 3,
          "target": {
            "node": 10,
            "path": "rotation"
          }
        },
        {
          "sampler": 4,
          "target": {
            "node": 5,
            "path": "rotation"
          }
        }
      ],
      "name": "Armature|prop spin",
      "samplers": [
        {
          "input": 25,
          "interpolation": "LINEAR",
          "output": 26
        },
        {
          "input": 27,
          "interpolation": "LINEAR",
          "output": 28
        },
        {
          "input": 29,
          "interpolation": "LINEAR",
          "output": 30
        },
        {
          "input": 31,
          "interpolation": "LINEAR",
          "output": 32
        },
        {
          "input": 33,
          "interpolation": "LINEAR",
          "output": 34
        }
      ]
    }
  ],
  "asset": {
    "extras": {
      "author": "Cinnamine3D (https://sketchfab.com/LordCinn)",
      "license": "CC-BY-4.0 (http://creativecommons.org/licenses/by/4.0/)",
      "source": "https://sketchfab.com/3d-models/pixel-plane-da5c802719844a86b9464f73c633cdd1",
      "title": "PIXEL PLANE"
    },
    "generator": "Sketchfab-12.67.0",
    "version": "2.0"
  },
  "bufferViews": [
    {
      "buffer": 0,
      "byteLength": 72480,
      "byteStride": 8,
      "name": "shortBufferViews",
      "target": 34962
    },
    {
      "buffer": 0,
      "byteLength": 86808,
      "byteOffset": 72480,
      "name": "floatBufferViews",
      "target": 34963
    },
    {
      "buffer": 0,
      "byteLength": 72480,
      "byteOffset": 159288,
      "byteStride": 8,
      "name": "floatBufferViews",
      "target": 34962
    },
    {
      "buffer": 0,
      "byteLength": 217440,
      "byteOffset": 231768,
      "byteStride": 12,
      "name": "floatBufferViews",
      "target": 34962
    },
    {
      "buffer": 0,
      "byteLength": 144960,
      "byteOffset": 449208,
      "byteStride": 16,
      "name": "floatBufferViews",
      "target": 34962
    },
    {
      "buffer": 0,
      "byteLength": 256,
      "byteOffset": 594168,
      "name": "floatBufferViews"
    },
    {
      "buffer": 0,
      "byteLength": 1252,
      "byteOffset": 594424,
      "name": "floatBufferViews"
    },
    {
      "buffer": 0,
      "byteLength": 972,
      "byteOffset": 595676,
      "byteStride": 12,
      "name": "floatBufferViews"
    },
    {
      "buffer": 0,
      "byteLength": 3712,
      "byteOffset": 596648,
      "byteStride": 16,
      "name": "floatBufferViews"
    }
  ],
  "buffers": [
    {
      "byteLength": 600360,
      "uri": "scene.bin"
    }
  ],
  "images": [
    {
      "uri": "textures/Material.026_baseColor.png"
    }
  ],
  "materials": [
    {
      "doubleSided": true,
      "name": "Material.026",
      "pbrMetallicRoughness": {
        "baseColorTexture": {
          "index": 0
        },
        "metallicFactor": 0.0,
        "roughnessFactor": 0.0
      }
    }
  ],
  "meshes": [
    {
      "name": "Cube.000_Material.026_0",
      "primitives": [
        {
          "attributes": {
            "JOINTS_0": 5,
            "NORMAL": 1,
            "POSITION": 0,
            "TEXCOORD_0": 2,
            "WEIGHTS_0": 6
          },
          "indices": 3,
          "material": 0,
          "mode": 4
        }
      ]
    }
  ],
  "nodes": [
    {
      "children": [
        1
      ],
      "matrix": [
        1.0,
        0.0,
        0.0,
        0.0,
        0.0,
        2.220446049250313e-16,
        -1.0,
        0.0,
        0.0,
        1.0,
        2.220446049250313e-16,
        0.0,
        0.0,
        0.0,
        0.0,
        1.0
      ],
      "name": "Sketchfab_model"
    },
    {
      "children": [
        2
      ],
      "matrix": [
        1.0,
        0.0,
        0.0,
        0.0,
        0.0,
        0.0,
        1.0,
        0.0,
        0.0,
        -1.0,
        0.0,
        0.0,
        0.0,
        0.0,
        0.0,
        1.0
      ],
      "name": "851ef2b194494e539ad187404fbe584b.fbx"
    },
    {
      "children": [
        3
      ],
      "name": "Object_2"
    },
    {
      "children": [
        4,
        5
      ],
      "name": "RootNode"
    },
    {
      "name": "Cube.000",
      "rotation": [
        -0.7071068286895752,
        0.0,
        0.0,
        0.7071067094802856
      ],
      "scale": [
        100.0,
        100.0,
        100.0
      ]
    },
    {
      "children": [
        6
      ],
      "name": "Armature",
      "rotation": [
        -0.7071068286895752,
        0.0,
        0.0,
        0.7071067094802856
      ],
      "scale": [
        100.0,
        100.0,
        100.0
      ]
    },
    {
      "children": [
        7,
        9,
        8
      ],
      "name": "Object_6"
    },
    {
      "children": [
        10
      ],
      "name": "_rootJoint"
    },
    {
      "matrix": [
        100.0,
        8.64953292178927e-22,
        1.0841048184553387e-22,
        0.0,
        1.0841048184553385e-22,
        6.123233995736768e-15,
        -100.00000000000003,
        0.0,
        -8.649532921789273e-22,
        100.00000000000003,
        6.123233995736768e-15,
        0.0,
        -3.774371882676019e-21,
        -1.9381122141198803e-13,
        -4.768371638874669e-06,
        1.0
      ],
      "name": "Object_8"
    },
    {
      "mesh": 0,
      "name": "Object_9",
      "skin": 0
    },
    {
      "children": [
        11
      ],
      "name": "Bone_00",
      "rotation": [
        -7.805604163024782e-09,
        -1.1102231569740545e-16,
        3.9650823253390577e-17,
        1.0
      ],
      "translation": [
        0.0,
        -3.200000047683716,
        0.0
      ]
    },
    {
      "children": [
        12
      ],
      "name": "Bone.001_01",
      "rotation": [
        -3.6103902090189877e-09,
        0.8865993618965149,
        6.920443329505588e-09,
        -0.4625381827354431
      ],
      "translation": [
        -1.6323322843277586e-23,
        2.8000001907348633,
        3.1086244689504383e-15
      ]
    },
    {
      "name": "Bone.001_end_02",
      "rotation": [
        1.9333000250072695e-39,
        -7.303800991540301e-17,
        2.6469779601696886e-23,
        1.0
      ],
      "translation": [
        6.617444900424222e-24,
        1.399999976158142,
        -6.617444900424222e-24
      ]
    }
  ],
  "samplers": [
    {
      "magFilter": 9729,
      "minFilter": 9987,
      "wrapS": 10497,
      "wrapT": 10497
    }
  ],
  "scene": 0,
  "scenes": [
    {
      "name": "Sketchfab_Scene",
      "nodes": [
        0
      ]
    }
  ],
  "skins": [
    {
      "inverseBindMatrices": 4,
      "joints": [
        7,
        10,
        11,
        12
      ],
      "skeleton": 7
    }
  ],
  "textures": [
    {
      "sampler": 0,
      "source": 0
    }
  ]
}
